<mxfile host="app.diagrams.net" agent="Mozilla/5.0 (Windows NT 10.0; Win64; x64) AppleWebKit/537.36 (KHTML, like Gecko) Chrome/126.0.0.0 Safari/537.36" version="24.7.6">
  <diagram id="C5RBs43oDa-KdzZeNtuy" name="Page-1">
    <mxGraphModel dx="1473" dy="861" grid="0" gridSize="10" guides="1" tooltips="1" connect="1" arrows="1" fold="1" page="1" pageScale="1" pageWidth="827" pageHeight="1169" math="0" shadow="0">
      <root>
        <mxCell id="WIyWlLk6GJQsqaUBKTNV-0" />
        <mxCell id="WIyWlLk6GJQsqaUBKTNV-1" parent="WIyWlLk6GJQsqaUBKTNV-0" />
        <mxCell id="kfTu6dHr8rOkDSmyLoxc-0" value="&lt;div&gt;&lt;br&gt;&lt;/div&gt;&lt;div&gt;&lt;br&gt;&lt;/div&gt;&lt;div&gt;&lt;span style=&quot;background-color: initial;&quot;&gt;Bank website&lt;/span&gt;&lt;br&gt;&lt;/div&gt;&lt;div&gt;Manual extraction&lt;/div&gt;" style="strokeWidth=2;html=1;shape=mxgraph.flowchart.database;whiteSpace=wrap;labelBackgroundColor=none;fillColor=#FAE5C7;strokeColor=#0F8B8D;fontColor=#143642;" vertex="1" parent="WIyWlLk6GJQsqaUBKTNV-1">
          <mxGeometry x="87" y="181" width="80" height="100" as="geometry" />
        </mxCell>
        <mxCell id="kfTu6dHr8rOkDSmyLoxc-3" value="" style="endArrow=classic;html=1;rounded=0;exitX=1;exitY=0.5;exitDx=0;exitDy=0;exitPerimeter=0;labelBackgroundColor=none;strokeColor=#A8201A;fontColor=default;" edge="1" parent="WIyWlLk6GJQsqaUBKTNV-1" source="kfTu6dHr8rOkDSmyLoxc-5">
          <mxGeometry width="50" height="50" relative="1" as="geometry">
            <mxPoint x="187" y="365.38" as="sourcePoint" />
            <mxPoint x="290" y="365" as="targetPoint" />
          </mxGeometry>
        </mxCell>
        <mxCell id="kfTu6dHr8rOkDSmyLoxc-4" value="" style="verticalLabelPosition=bottom;verticalAlign=top;html=1;shape=hexagon;perimeter=hexagonPerimeter2;arcSize=6;size=0.27;labelBackgroundColor=none;fillColor=#FAE5C7;strokeColor=#0F8B8D;fontColor=#143642;" vertex="1" parent="WIyWlLk6GJQsqaUBKTNV-1">
          <mxGeometry x="291" y="336" width="100" height="60" as="geometry" />
        </mxCell>
        <mxCell id="kfTu6dHr8rOkDSmyLoxc-5" value="Data source" style="strokeWidth=2;html=1;shape=mxgraph.flowchart.decision;whiteSpace=wrap;labelBackgroundColor=none;fillColor=#FAE5C7;strokeColor=#0F8B8D;fontColor=#143642;" vertex="1" parent="WIyWlLk6GJQsqaUBKTNV-1">
          <mxGeometry x="79.5" y="323.5" width="95" height="85" as="geometry" />
        </mxCell>
        <mxCell id="kfTu6dHr8rOkDSmyLoxc-6" value="&lt;div&gt;&lt;br&gt;&lt;/div&gt;Staging /&lt;div&gt;Preparation&lt;/div&gt;" style="text;html=1;align=center;verticalAlign=middle;whiteSpace=wrap;rounded=0;labelBackgroundColor=none;fontColor=#143642;" vertex="1" parent="WIyWlLk6GJQsqaUBKTNV-1">
          <mxGeometry x="311" y="341" width="60" height="30" as="geometry" />
        </mxCell>
        <mxCell id="kfTu6dHr8rOkDSmyLoxc-8" value="" style="endArrow=classic;html=1;rounded=0;exitX=0.25;exitY=0;exitDx=0;exitDy=0;fillColor=#FAE5C7;strokeColor=#A8201A;labelBackgroundColor=none;fontColor=default;" edge="1" parent="WIyWlLk6GJQsqaUBKTNV-1">
          <mxGeometry width="50" height="50" relative="1" as="geometry">
            <mxPoint x="328" y="336" as="sourcePoint" />
            <mxPoint x="328" y="209" as="targetPoint" />
          </mxGeometry>
        </mxCell>
        <mxCell id="kfTu6dHr8rOkDSmyLoxc-9" value="" style="endArrow=classic;html=1;rounded=0;fillColor=#FAE5C7;strokeColor=#A8201A;exitX=0.635;exitY=1.027;exitDx=0;exitDy=0;exitPerimeter=0;entryX=0.625;entryY=0;entryDx=0;entryDy=0;labelBackgroundColor=none;fontColor=default;" edge="1" parent="WIyWlLk6GJQsqaUBKTNV-1" source="kfTu6dHr8rOkDSmyLoxc-14" target="kfTu6dHr8rOkDSmyLoxc-4">
          <mxGeometry width="50" height="50" relative="1" as="geometry">
            <mxPoint x="351" y="210" as="sourcePoint" />
            <mxPoint x="354" y="327" as="targetPoint" />
          </mxGeometry>
        </mxCell>
        <mxCell id="kfTu6dHr8rOkDSmyLoxc-10" value="&lt;font style=&quot;font-size: 11px;&quot;&gt;Feature Engineering/&lt;/font&gt;&lt;div style=&quot;font-size: 11px;&quot;&gt;&lt;font style=&quot;font-size: 11px;&quot;&gt;Transforming&lt;/font&gt;&lt;/div&gt;" style="text;html=1;align=center;verticalAlign=middle;whiteSpace=wrap;rounded=0;fillColor=none;strokeColor=none;fontColor=#143642;labelBackgroundColor=none;" vertex="1" parent="WIyWlLk6GJQsqaUBKTNV-1">
          <mxGeometry x="241" y="233" width="80" height="66" as="geometry" />
        </mxCell>
        <mxCell id="kfTu6dHr8rOkDSmyLoxc-11" value="Data validation" style="text;html=1;align=center;verticalAlign=middle;whiteSpace=wrap;rounded=0;fillColor=none;strokeColor=none;fontColor=#143642;labelBackgroundColor=none;" vertex="1" parent="WIyWlLk6GJQsqaUBKTNV-1">
          <mxGeometry x="350" y="251" width="80" height="30" as="geometry" />
        </mxCell>
        <mxCell id="kfTu6dHr8rOkDSmyLoxc-12" value="" style="endArrow=classic;html=1;rounded=0;exitX=1;exitY=0.5;exitDx=0;exitDy=0;labelBackgroundColor=none;strokeColor=#A8201A;fontColor=default;" edge="1" parent="WIyWlLk6GJQsqaUBKTNV-1" source="kfTu6dHr8rOkDSmyLoxc-4">
          <mxGeometry width="50" height="50" relative="1" as="geometry">
            <mxPoint x="401" y="401" as="sourcePoint" />
            <mxPoint x="481" y="366" as="targetPoint" />
          </mxGeometry>
        </mxCell>
        <mxCell id="kfTu6dHr8rOkDSmyLoxc-13" value="Warehousing" style="strokeWidth=2;html=1;shape=mxgraph.flowchart.database;whiteSpace=wrap;labelBackgroundColor=none;fillColor=#FAE5C7;strokeColor=#0F8B8D;fontColor=#143642;" vertex="1" parent="WIyWlLk6GJQsqaUBKTNV-1">
          <mxGeometry x="481" y="336" width="80" height="60" as="geometry" />
        </mxCell>
        <mxCell id="kfTu6dHr8rOkDSmyLoxc-14" value="Categorization&amp;nbsp;&lt;div&gt;with fine-tuned model&lt;/div&gt;" style="rounded=1;whiteSpace=wrap;html=1;absoluteArcSize=1;arcSize=14;strokeWidth=2;labelBackgroundColor=none;fillColor=#FAE5C7;strokeColor=#0F8B8D;fontColor=#143642;" vertex="1" parent="WIyWlLk6GJQsqaUBKTNV-1">
          <mxGeometry x="290" y="137" width="100" height="70" as="geometry" />
        </mxCell>
        <mxCell id="kfTu6dHr8rOkDSmyLoxc-17" value="" style="endArrow=none;dashed=1;html=1;rounded=0;entryX=0.5;entryY=1;entryDx=0;entryDy=0;entryPerimeter=0;exitX=0.5;exitY=0;exitDx=0;exitDy=0;exitPerimeter=0;labelBackgroundColor=none;strokeColor=#A8201A;fontColor=default;" edge="1" parent="WIyWlLk6GJQsqaUBKTNV-1" source="kfTu6dHr8rOkDSmyLoxc-5" target="kfTu6dHr8rOkDSmyLoxc-0">
          <mxGeometry width="50" height="50" relative="1" as="geometry">
            <mxPoint x="117" y="351" as="sourcePoint" />
            <mxPoint x="167" y="301" as="targetPoint" />
          </mxGeometry>
        </mxCell>
        <mxCell id="kfTu6dHr8rOkDSmyLoxc-18" value="" style="endArrow=none;dashed=1;html=1;rounded=0;exitX=0.5;exitY=0;exitDx=0;exitDy=0;exitPerimeter=0;entryX=0.5;entryY=1;entryDx=0;entryDy=0;entryPerimeter=0;labelBackgroundColor=none;strokeColor=#A8201A;fontColor=default;" edge="1" parent="WIyWlLk6GJQsqaUBKTNV-1" target="kfTu6dHr8rOkDSmyLoxc-5">
          <mxGeometry width="50" height="50" relative="1" as="geometry">
            <mxPoint x="127" y="461" as="sourcePoint" />
            <mxPoint x="157" y="431" as="targetPoint" />
          </mxGeometry>
        </mxCell>
        <mxCell id="kfTu6dHr8rOkDSmyLoxc-19" value="Dashboarding with POWER BI" style="rounded=1;whiteSpace=wrap;html=1;absoluteArcSize=1;arcSize=14;strokeWidth=2;labelBackgroundColor=none;fillColor=#FAE5C7;strokeColor=#0F8B8D;fontColor=#143642;" vertex="1" parent="WIyWlLk6GJQsqaUBKTNV-1">
          <mxGeometry x="651" y="331" width="100" height="70" as="geometry" />
        </mxCell>
        <mxCell id="kfTu6dHr8rOkDSmyLoxc-20" value="" style="endArrow=classic;html=1;rounded=0;exitX=1;exitY=0.5;exitDx=0;exitDy=0;labelBackgroundColor=none;strokeColor=#A8201A;fontColor=default;" edge="1" parent="WIyWlLk6GJQsqaUBKTNV-1">
          <mxGeometry width="50" height="50" relative="1" as="geometry">
            <mxPoint x="561" y="365.38" as="sourcePoint" />
            <mxPoint x="651" y="365.38" as="targetPoint" />
          </mxGeometry>
        </mxCell>
        <mxCell id="kfTu6dHr8rOkDSmyLoxc-21" value="&lt;div&gt;PDF&amp;nbsp;&lt;div&gt;data&lt;div&gt;&amp;nbsp;extraction&lt;/div&gt;&lt;/div&gt;&lt;/div&gt;" style="rounded=1;whiteSpace=wrap;html=1;absoluteArcSize=1;arcSize=14;strokeWidth=2;labelBackgroundColor=none;fillColor=#FAE5C7;strokeColor=#0F8B8D;fontColor=#143642;" vertex="1" parent="WIyWlLk6GJQsqaUBKTNV-1">
          <mxGeometry x="77" y="464" width="100" height="70" as="geometry" />
        </mxCell>
        <mxCell id="kfTu6dHr8rOkDSmyLoxc-22" value="&lt;font style=&quot;font-size: 11px;&quot;&gt;Multiclass sequence classification using DistilBERT:&lt;/font&gt;&lt;div style=&quot;font-size: 11px;&quot;&gt;&lt;font style=&quot;font-size: 11px;&quot;&gt;&lt;br&gt;&lt;/font&gt;&lt;/div&gt;&lt;div style=&quot;font-size: 11px;&quot;&gt;&lt;font style=&quot;font-size: 11px;&quot;&gt;Transaction data is categorized into 20 categories.&lt;/font&gt;&lt;/div&gt;&lt;div style=&quot;font-size: 11px;&quot;&gt;&lt;font style=&quot;font-size: 11px;&quot;&gt;&lt;br&gt;&lt;/font&gt;&lt;/div&gt;" style="text;html=1;align=center;verticalAlign=middle;whiteSpace=wrap;rounded=0;labelBackgroundColor=none;fontColor=#143642;" vertex="1" parent="WIyWlLk6GJQsqaUBKTNV-1">
          <mxGeometry x="255" y="60" width="165" height="83" as="geometry" />
        </mxCell>
        <mxCell id="kfTu6dHr8rOkDSmyLoxc-26" value="&lt;font style=&quot;font-size: 10px;&quot;&gt;Data Modeling&lt;/font&gt;" style="text;html=1;align=center;verticalAlign=middle;whiteSpace=wrap;rounded=0;labelBackgroundColor=none;fontColor=#143642;" vertex="1" parent="WIyWlLk6GJQsqaUBKTNV-1">
          <mxGeometry x="403" y="371" width="60" height="30" as="geometry" />
        </mxCell>
      </root>
    </mxGraphModel>
  </diagram>
</mxfile>
